<svg id="SVGDoc" width="640" height="96" xmlns="http://www.w3.org/2000/svg" version="1.1" xmlns:xlink="http://www.w3.org/1999/xlink" xmlns:avocode="https://avocode.com/" viewBox="0 0 160 24"><defs><path d="M165.05,4885.4c0,-1.32548 1.07452,-2.4 2.4,-2.4h85.15c1.32548,0 2.4,1.07452 2.4,2.4v19.2c0,1.32548 -1.07452,2.4 -2.4,2.4h-85.15c-1.32548,0 -2.4,-1.07452 -2.4,-2.4z" id="Path-0"/><path d="M237.85844,4888.25l4.77021,9.49331v4.75669h3.83993v-4.71655l4.84938,-9.53345h-4.1962l-2.57314,6.16162l-2.51377,-6.16162zM237.84866,4902.5v-3.41197h-6.37498v-10.83803h-3.86062v14.25zM217.8256,4902.5v-4.11444l1.06888,-1.12394l3.48376,5.23838h4.43389l-5.46318,-7.86761l5.10688,-6.38239h-4.35471l-4.27553,5.41901v-5.41901h-3.85985v14.25zM206.01855,4899.08803v-2.24789h5.10802v-3.17113h-5.10802v-2.00704h5.97914v-3.41197h-9.83984v14.25h10.01803v-3.41197zM194.21066,4899.08803v-2.24789h5.10802v-3.17113h-5.10802v-2.00704h5.97914v-3.41197h-9.83984v14.25h10.01803v-3.41197zM176.19222,4895.05387l-0.96961,2.97043l-3.04735,-9.7743h-4.17526l5.50105,14.25h3.20565l1.9788,-5.09789l1.99858,5.09789h3.20565l5.50105,-14.25h-4.19505l-3.02756,9.7743l-1.00918,-2.97043l2.31519,-6.80387h-3.54205l-1.24664,4.39542l-1.22686,-4.39542h-3.54204z" id="Path-1"/><path d="M153.08184,4894.71267h2.43575c0.23764,0 0.45877,-0.1338 0.6634,-0.4014c0.20463,-0.26761 0.30695,-0.64226 0.30695,-1.12395c0,-0.49507 -0.11882,-0.87306 -0.35646,-1.13398c-0.23763,-0.26091 -0.47526,-0.39137 -0.7129,-0.39137h-2.33674zM149.22028,4902.5v-14.25h6.45574c0.6865,0 1.32019,0.14384 1.90107,0.43151c0.58089,0.28768 1.07926,0.66233 1.49512,1.12395c0.41586,0.46162 0.74261,0.99014 0.98024,1.58556c0.23764,0.59543 0.35646,1.19419 0.35646,1.7963c0,0.82959 -0.17823,1.60229 -0.53468,2.31814c-0.35645,0.71585 -0.85152,1.30123 -1.48522,1.75616l2.97043,5.23838h-4.35663l-2.47536,-4.37535h-1.44561v4.37535zM147.41822,4899.08803v3.41197h-10.02026v-14.25h9.84203v3.41197h-5.98047v2.00704h5.10914v3.17113h-5.10914v2.24789zM127.59554,4891.58169v2.18768h2.63378c0.26404,0 0.50498,-0.07359 0.72281,-0.22078c0.21783,-0.14718 0.32675,-0.44155 0.32675,-0.8831c0,-0.38803 -0.09242,-0.66567 -0.27724,-0.83292c-0.18483,-0.16725 -0.40266,-0.25088 -0.6535,-0.25088zM131.76396,4898.04437c0,-0.34789 -0.0922,-0.63891 -0.27658,-0.87307c-0.18439,-0.23415 -0.42145,-0.35123 -0.7112,-0.35123h-3.18063v2.38838h3.04234c0.31609,0 0.58279,-0.10035 0.8001,-0.30106c0.21731,-0.2007 0.32597,-0.48837 0.32597,-0.86302zM135.69492,4898.84718c0,0.64226 -0.13202,1.19419 -0.39606,1.65581c-0.26404,0.46162 -0.62709,0.83961 -1.08916,1.13398c-0.46207,0.29437 -1.00004,0.5118 -1.61393,0.65229c-0.61389,0.14049 -1.26408,0.21074 -1.95059,0.21074h-6.9112v-14.25h8.15879c0.48847,0 0.93073,0.10704 1.32679,0.32113c0.39606,0.21408 0.7327,0.49172 1.00995,0.83292c0.27724,0.3412 0.49177,0.72922 0.64359,1.16408c0.15182,0.43487 0.22773,0.87976 0.22773,1.33469c0,0.66901 -0.16832,1.30792 -0.50497,1.91672c-0.33665,0.60881 -0.84162,1.06708 -1.51492,1.37483c0.80532,0.24084 1.44231,0.65897 1.91098,1.2544c0.46867,0.59542 0.703,1.39489 0.703,2.39841zM117.45647,4902.5v-7.50634l-2.35655,5.27852h-2.0595l-2.35654,-5.27852v7.50634h-3.86156v-14.25h4.21801l3.02984,6.70352l3.04965,-6.70352h4.19821v14.25zM105.02026,4899.08803v3.41197h-10.02026v-14.25h9.84203v3.41197h-5.98047v2.00704h5.10914v3.17113h-5.10914v2.24789z" id="Path-2"/></defs><desc>Generated with Avocode.</desc><g transform="matrix(1,0,0,1,-95,-4883)"><g><title>logo</title><g><title>Rectangle-4</title><use xlink:href="#Path-0" fill="#db5b4b" fill-opacity="1"/></g><g><title>Weekly</title><use xlink:href="#Path-1" fill="#ffffff" fill-opacity="1"/></g><g><title>Ember</title><use xlink:href="#Path-2" fill="#db5b4b" fill-opacity="1"/></g></g></g></svg>