<?xml version="1.0" encoding="UTF-8"?>
<svg width="200px" height="29px" viewBox="0 0 200 29" version="1.1" xmlns="http://www.w3.org/2000/svg" xmlns:xlink="../../external.html?link=http://www.w3.org/1999/xlink">
    <!-- Generator: Sketch 46.1 (44463) - http://www.bohemiancoding.com/sketch -->
    <title>Logo@1x</title>
    <desc>Created with Sketch.</desc>
    <defs></defs>
    <g id="Screens" stroke="none" stroke-width="1" fill="none" fill-rule="evenodd">
        <g id="Homepage" transform="translate(-80.000000, -58.000000)">
            <g id="Nav" transform="translate(80.000000, 54.000000)">
                <g id="Logo" transform="translate(0.000000, 4.000000)">
                    <rect id="Rectangle-4" fill="#FFFFFF" x="87.5576037" y="0" width="112.442396" height="29" rx="3"></rect>
                    <path d="M98.6374239,6.34375 L103.063444,6.34375 L104.596479,11.6548856 L106.15424,6.34375 L110.58026,6.34375 L107.687275,14.5650968 L108.94832,18.1543574 L112.731454,6.34375 L117.973444,6.34375 L111.099514,23.5625 L107.093842,23.5625 L104.596479,17.4025528 L102.123842,23.5625 L98.1181702,23.5625 L91.2442396,6.34375 L96.4615035,6.34375 L100.269364,18.1543574 L101.480956,14.5650968 L98.6374239,6.34375 Z M131.696579,19.4397007 L131.696579,23.5625 L119.185036,23.5625 L119.185036,6.34375 L131.474042,6.34375 L131.474042,10.4665493 L124.006678,10.4665493 L124.006678,12.8917254 L130.386081,12.8917254 L130.386081,16.7235035 L124.006678,16.7235035 L124.006678,19.4397007 L131.696579,19.4397007 Z M146.458221,19.4397007 L146.458221,23.5625 L133.946679,23.5625 L133.946679,6.34375 L146.235684,6.34375 L146.235684,10.4665493 L138.76832,10.4665493 L138.76832,12.8917254 L145.147724,12.8917254 L145.147724,16.7235035 L138.76832,16.7235035 L138.76832,19.4397007 L146.458221,19.4397007 Z M148.708321,23.5625 L148.708321,6.34375 L153.529963,6.34375 L153.529963,12.8917254 L158.870858,6.34375 L164.310659,6.34375 L157.931256,14.0558099 L164.755734,23.5625 L159.217027,23.5625 L154.865187,17.2327905 L153.529963,18.5908891 L153.529963,23.5625 L148.708321,23.5625 Z M165.769515,23.5625 L165.769515,6.34375 L170.591157,6.34375 L170.591157,19.4397007 L178.553048,19.4397007 L178.553048,23.5625 L165.769515,23.5625 Z M183.795038,6.34375 L186.935287,13.7890405 L190.149715,6.34375 L195.391705,6.34375 L189.333745,17.8633363 L189.333745,23.5625 L184.536829,23.5625 L184.536829,17.8148327 L178.577774,6.34375 L183.795038,6.34375 Z" id="Weekly" fill="#DB5B4B"></path>
                    <path d="M12.5253209,19.4397007 L12.5253209,23.5625 L0,23.5625 L0,6.34375 L12.3025385,6.34375 L12.3025385,10.4665493 L4.82695172,10.4665493 L4.82695172,12.8917254 L11.2133801,12.8917254 L11.2133801,16.7235035 L4.82695172,16.7235035 L4.82695172,19.4397007 L12.5253209,19.4397007 Z M28.0705808,23.5625 L28.0705808,14.4923415 L25.1249025,20.8705546 L22.5505283,20.8705546 L19.6048501,14.4923415 L19.6048501,23.5625 L14.7778983,23.5625 L14.7778983,6.34375 L20.0504148,6.34375 L23.8377154,14.443838 L27.6497696,6.34375 L32.8975325,6.34375 L32.8975325,23.5625 L28.0705808,23.5625 Z M50.868645,19.1486796 C50.868645,19.9247398 50.7036227,20.5916565 50.3735731,21.1494498 C50.0435234,21.7072431 49.589712,22.16398 49.0121251,22.5196743 C48.4345383,22.8753686 47.7620722,23.1380933 46.9947069,23.3078565 C46.2273415,23.4776197 45.4146064,23.5625 44.5564774,23.5625 L35.9174715,23.5625 L35.9174715,6.34375 L46.1159541,6.34375 C46.7265459,6.34375 47.2793708,6.47309143 47.7744452,6.73177817 C48.2695197,6.99046491 48.6903266,7.32594424 49.0368787,7.73822623 C49.3834308,8.15050822 49.6515922,8.61937091 49.8413707,9.14482835 C50.0311492,9.67028578 50.1260371,10.2078611 50.1260371,10.7575704 C50.1260371,11.5659665 49.9156336,12.3379731 49.4948203,13.0736136 C49.074007,13.809254 48.4427966,14.362997 47.60117,14.7348592 C48.6078214,15.0258817 49.4040542,15.5311217 49.9898923,16.2505942 C50.5757304,16.9700667 50.868645,17.9360855 50.868645,19.1486796 Z M45.9674325,18.1786092 C45.9674325,17.7582432 45.8519169,17.4065962 45.6208821,17.1236576 C45.3898474,16.8407189 45.0928072,16.6992518 44.7297526,16.6992518 L40.7444232,16.6992518 L40.7444232,19.5852113 L44.5564774,19.5852113 C44.952537,19.5852113 45.2867072,19.4639537 45.5589981,19.2214349 C45.8312891,18.978916 45.9674325,18.6313109 45.9674325,18.1786092 Z M40.7444232,10.3695423 L40.7444232,13.0129842 L44.0366518,13.0129842 C44.3667015,13.0129842 44.6678672,12.9240619 44.9401582,12.7462148 C45.2124491,12.5683677 45.3485926,12.2126787 45.3485926,11.6791373 C45.3485926,11.2102676 45.2330769,10.8747883 45.0020422,10.6726893 C44.7710074,10.4705902 44.4987206,10.3695423 44.1851734,10.3695423 L40.7444232,10.3695423 Z M65.5227754,19.4397007 L65.5227754,23.5625 L52.9974545,23.5625 L52.9974545,6.34375 L65.299993,6.34375 L65.299993,10.4665493 L57.8244062,10.4665493 L57.8244062,12.8917254 L64.2108347,12.8917254 L64.2108347,16.7235035 L57.8244062,16.7235035 L57.8244062,19.4397007 L65.5227754,19.4397007 Z M67.7753528,23.5625 L67.7753528,6.34375 L75.845026,6.34375 C76.703155,6.34375 77.4952622,6.51755255 78.2213714,6.86516285 C78.9474806,7.21277316 79.57044,7.66546816 80.0902681,8.22326144 C80.6100963,8.78105473 81.0185266,9.41967803 81.3155713,10.1391505 C81.6126159,10.858623 81.761136,11.5821266 81.761136,12.3096831 C81.761136,13.3120942 81.5383559,14.2457777 81.0927889,15.1107614 C80.6472219,15.9757452 80.0283881,16.6830812 79.236269,17.2327905 L82.9493088,23.5625 L77.5035171,23.5625 L74.4093173,18.2756162 L72.6023046,18.2756162 L72.6023046,23.5625 L67.7753528,23.5625 Z M72.6023046,14.1528169 L75.6469972,14.1528169 C75.9440419,14.1528169 76.2204543,13.9911401 76.4762427,13.6677817 C76.7320312,13.3444233 76.8599235,12.8917283 76.8599235,12.3096831 C76.8599235,11.71147 76.7114034,11.2547331 76.4143587,10.9394586 C76.1173141,10.6241842 75.8202739,10.4665493 75.5232292,10.4665493 L72.6023046,10.4665493 L72.6023046,14.1528169 Z" id="Ember" fill="#FFFFFF"></path>
                </g>
            </g>
        </g>
    </g>
</svg>